<svg width="29" height="29" viewBox="0 0 29 29" fill="none" xmlns="http://www.w3.org/2000/svg">
<path opacity="0.5" d="M25.6771 14.4999C25.6771 8.32702 20.6729 3.32288 14.5 3.32288C8.32707 3.32288 3.32293 8.32702 3.32292 14.4999C3.32292 20.6729 8.32707 25.677 14.5 25.6771C20.6729 25.6771 25.6771 20.6729 25.6771 14.4999ZM27.4896 14.4999C27.4896 21.6739 21.6739 27.4896 14.5 27.4896C7.32605 27.4895 1.51042 21.6739 1.51042 14.4999C1.51043 7.32601 7.32605 1.51038 14.5 1.51038C21.6739 1.51038 27.4896 7.326 27.4896 14.4999Z" fill="white"/>
<path d="M13.5938 18.125V15.4062H10.875C10.3745 15.4062 9.96875 15.0005 9.96875 14.5C9.96875 13.9995 10.3745 13.5938 10.875 13.5938H13.5938V10.875C13.5938 10.3745 13.9995 9.96875 14.5 9.96875C15.0005 9.96875 15.4062 10.3745 15.4062 10.875V13.5938H18.125C18.6255 13.5938 19.0312 13.9995 19.0312 14.5C19.0312 15.0005 18.6255 15.4062 18.125 15.4062H15.4062V18.125C15.4062 18.6255 15.0005 19.0312 14.5 19.0312C13.9995 19.0312 13.5938 18.6255 13.5938 18.125Z" fill="white"/>
</svg>
