<svg width="62" height="62" viewBox="0 0 62 62" fill="none" xmlns="http://www.w3.org/2000/svg">
<mask id="mask0_35_10" style="mask-type:luminance" maskUnits="userSpaceOnUse" x="9" y="9" width="43" height="43">
<mask id="mask1_35_10" style="mask-type:luminance" maskUnits="userSpaceOnUse" x="9" y="9" width="43" height="43">
<path d="M30.7 51.8089C42.3475 51.8089 51.7897 42.3667 51.7897 30.7191C51.7897 19.0716 42.3475 9.62939 30.7 9.62939C19.0524 9.62939 9.61024 19.0716 9.61024 30.7191C9.61024 42.3667 19.0524 51.8089 30.7 51.8089Z" fill="url(#paint0_radial_35_10)"/>
</mask>
<g mask="url(#mask1_35_10)"><path d="M30.7 51.8089C42.3475 51.8089 51.7897 42.3667 51.7897 30.7191C51.7897 19.0716 42.3475 9.62939 30.7 9.62939C19.0524 9.62939 9.61024 19.0716 9.61024 30.7191C9.61024 42.3667 19.0524 51.8089 30.7 51.8089Z" fill="url(#paint1_radial_35_10)"/></g>
</mask>
<g mask="url(#mask0_35_10)"><path d="M30.7 51.8061C42.346 51.8061 51.787 42.3651 51.787 30.7191C51.787 19.0731 42.346 9.63208 30.7 9.63208C19.054 9.63208 9.61299 19.0731 9.61299 30.7191C9.61299 42.3651 19.054 51.8061 30.7 51.8061Z" fill="#008CFF"/></g>
<mask id="mask2_35_10" style="mask-type:luminance" maskUnits="userSpaceOnUse" x="16" y="33" width="29" height="29"><path d="M30.7 61.1439C38.3759 61.1439 44.5985 54.9214 44.5985 47.2454C44.5985 39.5695 38.3759 33.3469 30.7 33.3469C23.0241 33.3469 16.8015 39.5695 16.8015 47.2454C16.8015 54.9214 23.0241 61.1439 30.7 61.1439Z" fill="url(#paint2_linear_35_10)"/></mask>
<g mask="url(#mask2_35_10)"><path d="M30.7 60.9472C38.2673 60.9472 44.4019 54.8127 44.4019 47.2453C44.4019 39.678 38.2673 33.5435 30.7 33.5435C23.1327 33.5435 16.9981 39.678 16.9981 47.2453C16.9981 54.8127 23.1327 60.9472 30.7 60.9472Z" fill="#008CFF"/></g>
<mask id="mask3_35_10" style="mask-type:luminance" maskUnits="userSpaceOnUse" x="23" y="17" width="15" height="15"><path d="M35.705 29.3987C38.4389 26.6683 38.4142 22.2112 35.65 19.4435C32.8858 16.6758 28.4288 16.6456 25.695 19.376C22.9612 22.1064 22.9858 26.5635 25.75 29.3311C28.5142 32.0988 32.9712 32.129 35.705 29.3987Z" fill="url(#paint3_linear_35_10)"/></mask>
<g mask="url(#mask3_35_10)"><path d="M35.6341 29.3275C38.3292 26.6358 38.305 22.2418 35.58 19.5134C32.855 16.7849 28.461 16.7552 25.7659 19.447C23.0708 22.1387 23.095 26.5326 25.82 29.2611C28.545 31.9895 32.939 32.0193 35.6341 29.3275Z" fill="#008CFF"/></g>
<g filter="url(#filter0_f_35_10)"><rect x="8.7" y="8.69995" width="44" height="44" fill="#14FBFF" fill-opacity="0.3"/></g>
<defs>
<filter id="filter0_f_35_10" x="-2.86102e-06" y="-4.86374e-05" width="61.4" height="61.4" filterUnits="userSpaceOnUse" color-interpolation-filters="sRGB"><feFlood flood-opacity="0" result="BackgroundImageFix"/><feBlend mode="normal" in="SourceGraphic" in2="BackgroundImageFix" result="shape"/><feGaussianBlur stdDeviation="4.35" result="effect1_foregroundBlur_35_10"/></filter>
<radialGradient id="paint0_radial_35_10" cx="0" cy="0" r="1" gradientUnits="userSpaceOnUse" gradientTransform="translate(30.7007 30.7205) scale(21.0891)"><stop stop-color="white"/><stop offset="0.085" stop-color="white" stop-opacity="0.965"/><stop offset="0.224" stop-color="white" stop-opacity="0.869"/><stop offset="0.399" stop-color="white" stop-opacity="0.713"/><stop offset="0.603" stop-color="white" stop-opacity="0.496"/><stop offset="0.83" stop-color="white" stop-opacity="0.224"/><stop offset="1" stop-color="white" stop-opacity="0"/></radialGradient>
<radialGradient id="paint1_radial_35_10" cx="0" cy="0" r="1" gradientUnits="userSpaceOnUse" gradientTransform="translate(30.7 30.7191) scale(21.0897)"><stop stop-color="white" stop-opacity="0"/><stop offset="0.12" stop-color="white" stop-opacity="0.02"/><stop offset="0.25" stop-color="white" stop-opacity="0.07"/><stop offset="0.4" stop-color="white" stop-opacity="0.16"/><stop offset="0.5" stop-color="white" stop-opacity="0.28"/><stop offset="0.65" stop-color="white" stop-opacity="0.44"/><stop offset="0.8" stop-color="white" stop-opacity="0.64"/><stop offset="0.9" stop-color="white" stop-opacity="0.86"/><stop offset="1" stop-color="white"/></radialGradient>
<linearGradient id="paint2_linear_35_10" x1="30.7715" y1="33.329" x2="30.7715" y2="61.1302" gradientUnits="userSpaceOnUse"><stop stop-color="white"/><stop offset="0.094" stop-color="white" stop-opacity="0.776"/><stop offset="0.218" stop-color="white" stop-opacity="0.503"/><stop offset="0.331" stop-color="white" stop-opacity="0.287"/><stop offset="0.427" stop-color="white" stop-opacity="0.131"/><stop offset="0.503" stop-color="white" stop-opacity="0.035"/><stop offset="0.55" stop-color="white" stop-opacity="0"/></linearGradient>
<linearGradient id="paint3_linear_35_10" x1="31.5525" y1="31.2929" x2="30.0719" y2="17.2743" gradientUnits="userSpaceOnUse"><stop stop-color="white"/><stop offset="1" stop-color="white" stop-opacity="0"/></linearGradient>
</defs>
</svg>
