<svg width="22" height="22" viewBox="0 0 22 22" fill="none" xmlns="http://www.w3.org/2000/svg">
<path fill-rule="evenodd" clip-rule="evenodd" d="M11 7.5625C9.10152 7.5625 7.5625 9.10152 7.5625 11C7.5625 12.8985 9.10152 14.4375 11 14.4375C12.8985 14.4375 14.4375 12.8985 14.4375 11C14.4375 9.10152 12.8985 7.5625 11 7.5625ZM8.9375 11C8.9375 9.86095 9.86095 8.9375 11 8.9375C12.139 8.9375 13.0625 9.86095 13.0625 11C13.0625 12.139 12.139 13.0625 11 13.0625C9.86095 13.0625 8.9375 12.139 8.9375 11Z" fill="white"/>
<path fill-rule="evenodd" clip-rule="evenodd" d="M11 1.14587C10.3541 1.14587 9.76424 1.32333 9.11953 1.62288C8.49574 1.91272 7.77369 2.34033 6.87002 2.87549L6.17969 3.2843C5.27572 3.81963 4.55373 4.24718 3.99736 4.65619C3.42205 5.07913 2.98079 5.51206 2.6614 6.07948C2.34252 6.646 2.19854 7.25174 2.12947 7.97051C2.06249 8.66748 2.06249 9.521 2.0625 10.593V11.407C2.06249 12.4791 2.06249 13.3326 2.12947 14.0295C2.19854 14.7484 2.34252 15.3541 2.6614 15.9206C2.98079 16.488 3.42205 16.921 3.99736 17.3439C4.55373 17.7529 5.27572 18.1805 6.17969 18.7158L6.87005 19.1246C7.77368 19.6598 8.49576 20.0874 9.11953 20.3772C9.76424 20.6767 10.3541 20.8542 11 20.8542C11.6459 20.8542 12.2358 20.6767 12.8805 20.3772C13.5042 20.0873 14.2263 19.6598 15.1299 19.1246L15.8203 18.7158C16.7242 18.1805 17.4463 17.7529 18.0026 17.3439C18.578 16.921 19.0192 16.488 19.3386 15.9206C19.6575 15.3541 19.8015 14.7484 19.8705 14.0295C19.9375 13.3326 19.9375 12.4791 19.9375 11.4071V10.593C19.9375 9.52109 19.9375 8.66747 19.8705 7.97051C19.8015 7.25174 19.6575 6.646 19.3386 6.07948C19.0192 5.51206 18.578 5.07913 18.0026 4.65619C17.4463 4.24718 16.7243 3.81963 15.8203 3.28432L15.1299 2.87549C14.2263 2.34032 13.5042 1.91272 12.8805 1.62288C12.2358 1.32333 11.6459 1.14587 11 1.14587ZM7.5398 4.07686C8.48135 3.51928 9.14472 3.12735 9.69897 2.86984C10.2393 2.61874 10.6248 2.52087 11 2.52087C11.3752 2.52087 11.7606 2.61874 12.301 2.86984C12.8552 3.12735 13.5186 3.51928 14.4602 4.07686L15.0892 4.44935C16.0306 5.00685 16.6933 5.40026 17.1882 5.76404C17.6703 6.11849 17.9492 6.41438 18.1404 6.75393C18.332 7.09439 18.4432 7.49278 18.5018 8.10204C18.5618 8.72564 18.5625 9.51321 18.5625 10.6276V11.3725C18.5625 12.4869 18.5618 13.2745 18.5018 13.898C18.4432 14.5073 18.332 14.9057 18.1404 15.2461C17.9492 15.5857 17.6703 15.8816 17.1882 16.236C16.6933 16.5999 16.0306 16.9932 15.0892 17.5507L14.4602 17.9233C13.5186 18.4808 12.8552 18.8727 12.301 19.1302C11.7606 19.3813 11.3752 19.4792 11 19.4792C10.6248 19.4792 10.2393 19.3813 9.69897 19.1302C9.14472 18.8727 8.48135 18.4808 7.5398 17.9233L6.91083 17.5507C5.96942 16.9932 5.30664 16.5999 4.81179 16.236C4.32966 15.8816 4.05075 15.5857 3.85962 15.2461C3.668 14.9057 3.55671 14.5073 3.49817 13.898C3.43823 13.2745 3.4375 12.4869 3.4375 11.3725V10.6276C3.4375 9.51321 3.43823 8.72564 3.49817 8.10204C3.55671 7.49278 3.668 7.09439 3.85962 6.75393C4.05075 6.41438 4.32966 6.11849 4.81179 5.76404C5.30664 5.40026 5.96942 5.00685 6.91083 4.44935L7.5398 4.07686Z" fill="white"/>
</svg>
