<svg width="15" height="15" viewBox="0 0 15 15" fill="none" xmlns="http://www.w3.org/2000/svg">
<g clip-path="url(#clip0_18_54)">
<path d="M4.6875 6.5625C4.16748 6.5625 3.75 6.97998 3.75 7.5V13.125C3.75 13.645 4.16748 14.0625 4.6875 14.0625H5.625C6.14502 14.0625 6.5625 13.645 6.5625 13.125V7.5C6.5625 6.97998 6.14502 6.5625 5.625 6.5625H4.6875ZM0.9375 9.375C0.41748 9.375 0 9.79248 0 10.3125V13.125C0 13.645 0.41748 14.0625 0.9375 14.0625H1.875C2.39502 14.0625 2.8125 13.645 2.8125 13.125V10.3125C2.8125 9.79248 2.39502 9.375 1.875 9.375H0.9375Z" fill="white"/>
<path d="M12.1875 0.9375C11.6675 0.9375 11.25 1.35498 11.25 1.875V13.125C11.25 13.645 11.6675 14.0625 12.1875 14.0625H13.125C13.645 14.0625 14.0625 13.645 14.0625 13.125V1.875C14.0625 1.35498 13.645 0.9375 13.125 0.9375H12.1875ZM8.4375 3.75C7.91748 3.75 7.5 4.16748 7.5 4.6875V13.125C7.5 13.645 7.91748 14.0625 8.4375 14.0625H9.375C9.89502 14.0625 10.3125 13.645 10.3125 13.125V4.6875C10.3125 4.16748 9.89502 3.75 9.375 3.75H8.4375Z" fill="white" fill-opacity="0.34902"/>
</g>
<defs><clipPath id="clip0_18_54"><rect width="15" height="15" fill="white"/></clipPath></defs>
</svg>
